<svg width="148" height="36" viewBox="0 0 148 36" fill="none" xmlns="http://www.w3.org/2000/svg">
<path d="M50.3966 11.9236C51.5512 12.5368 52.4449 13.3978 53.0841 14.5067C53.7168 15.6157 54.0365 16.8942 54.0365 18.3423C54.0365 19.7773 53.7168 21.0493 53.0841 22.1647C52.4514 23.2802 51.5512 24.1412 50.3901 24.7544C49.229 25.3675 47.8788 25.6741 46.3459 25.6741H40.8535V11.0039H46.3459C47.8918 11.0039 49.2421 11.3105 50.3966 11.9236ZM49.2682 21.4733C50.0183 20.7362 50.3966 19.6925 50.3966 18.3423C50.3966 16.992 50.0183 15.9418 49.2682 15.1851C48.518 14.435 47.4613 14.0567 46.111 14.0567H44.4216V22.5822H46.111C47.4678 22.5822 48.518 22.2104 49.2682 21.4733Z" fill="#282827"/>
<path d="M55.2572 16.6658C55.7073 15.7591 56.3269 15.0612 57.1032 14.5785C57.8859 14.0893 58.7535 13.8479 59.7124 13.8479C60.5343 13.8479 61.2583 14.0175 61.878 14.3502C62.4977 14.6828 62.9739 15.1264 63.3065 15.6678V14.0175H66.8811V25.6741H63.3065V24.0238C62.9608 24.5652 62.4716 25.0087 61.8519 25.3414C61.2322 25.6741 60.5082 25.8437 59.6863 25.8437C58.7405 25.8437 57.8729 25.5958 57.0967 25.1C56.3139 24.6043 55.7007 23.8998 55.2507 22.9866C54.8006 22.0734 54.5723 21.0167 54.5723 19.823C54.5788 18.6227 54.8071 17.5725 55.2572 16.6658ZM62.576 17.7291C62.0802 17.2138 61.4801 16.9528 60.7691 16.9528C60.0581 16.9528 59.458 17.2072 58.9622 17.716C58.4665 18.2248 58.2186 18.9228 58.2186 19.8164C58.2186 20.7101 58.4665 21.4146 58.9622 21.9364C59.458 22.4582 60.0581 22.7192 60.7691 22.7192C61.4801 22.7192 62.0802 22.4648 62.576 21.9429C63.0717 21.4276 63.3196 20.7231 63.3196 19.836C63.3196 18.9489 63.0652 18.2444 62.576 17.7291Z" fill="#282827"/>
<path d="M75.145 22.6411V25.6678H73.3251C72.0271 25.6678 71.0225 25.3481 70.2985 24.7154C69.5744 24.0827 69.2091 23.0455 69.2091 21.6105V16.9726H67.7871V14.0047H69.2091V11.1606H72.7837V14.0047H75.1255V16.9726H72.7837V21.6561C72.7837 22.0018 72.8685 22.2562 73.0316 22.4063C73.2012 22.5628 73.4752 22.6346 73.8665 22.6346H75.145V22.6411Z" fill="#282827"/>
<path d="M76.4701 16.6658C76.9202 15.7591 77.5398 15.0612 78.3161 14.5785C79.0988 14.0893 79.9664 13.8479 80.9253 13.8479C81.7472 13.8479 82.4712 14.0175 83.0909 14.3502C83.7106 14.6828 84.1868 15.1264 84.5194 15.6678V14.0175H88.094V25.6741H84.5194V24.0238C84.1737 24.5652 83.6845 25.0087 83.0648 25.3414C82.4451 25.6741 81.7211 25.8437 80.8992 25.8437C79.9533 25.8437 79.0858 25.5958 78.3096 25.1C77.5268 24.6043 76.9136 23.8998 76.4635 22.9866C76.0135 22.0734 75.7852 21.0167 75.7852 19.823C75.7917 18.6227 76.02 17.5725 76.4701 16.6658ZM83.7889 17.7291C83.2931 17.2138 82.693 16.9528 81.982 16.9528C81.271 16.9528 80.6709 17.2072 80.1751 17.716C79.6794 18.2248 79.4315 18.9228 79.4315 19.8164C79.4315 20.7101 79.6794 21.4146 80.1751 21.9364C80.6709 22.4582 81.271 22.7192 81.982 22.7192C82.693 22.7192 83.2931 22.4648 83.7889 21.9429C84.2846 21.4276 84.5325 20.7231 84.5325 19.836C84.5325 18.9489 84.2781 18.2444 83.7889 17.7291Z" fill="#282827"/>
<path d="M91.1062 22.4975C92.4695 21.369 93.5458 20.4427 94.335 19.7187C95.1243 18.9946 95.7897 18.238 96.3311 17.4422C96.8725 16.6464 97.1464 15.8766 97.1464 15.12C97.1464 14.546 97.016 14.1024 96.7485 13.7828C96.4811 13.4631 96.0897 13.3001 95.5548 13.3001C95.02 13.3001 94.609 13.4958 94.3089 13.8937C94.0089 14.2916 93.8589 14.8525 93.8589 15.5766H90.4082C90.4343 14.3959 90.6887 13.4044 91.1714 12.6086C91.6541 11.8128 92.2868 11.2323 93.0761 10.8539C93.8654 10.4756 94.7395 10.293 95.6983 10.293C97.3552 10.293 98.6076 10.717 99.4491 11.565C100.291 12.4129 100.715 13.5218 100.715 14.8851C100.715 16.3789 100.206 17.7553 99.1881 19.0338C98.1705 20.3058 96.879 21.5516 95.3004 22.7649H100.943V25.6676H90.4539V23.0128C90.93 22.641 91.1453 22.4714 91.1062 22.4975Z" fill="#EB9A39"/>
<path d="M114.21 19.412C114.726 20.0709 114.987 20.8275 114.987 21.682C114.987 22.9084 114.556 23.8803 113.702 24.5978C112.847 25.3153 111.653 25.6741 110.121 25.6741H103.291V11.0039H109.892C111.386 11.0039 112.547 11.3431 113.395 12.028C114.237 12.7129 114.661 13.6392 114.661 14.8068C114.661 15.6678 114.432 16.3854 113.982 16.9594C113.532 17.5334 112.925 17.9248 112.175 18.1531C113.017 18.3292 113.695 18.7532 114.21 19.412ZM106.859 16.9398H109.201C109.788 16.9398 110.238 16.8094 110.551 16.555C110.864 16.3006 111.021 15.9157 111.021 15.4134C111.021 14.9112 110.864 14.5263 110.551 14.2654C110.238 13.998 109.788 13.8675 109.201 13.8675H106.859V16.9398ZM110.884 22.38C111.21 22.106 111.373 21.7146 111.373 21.1993C111.373 20.684 111.203 20.2796 110.864 19.9861C110.525 19.6925 110.055 19.549 109.455 19.549H106.866V22.7844H109.501C110.088 22.7909 110.551 22.654 110.884 22.38Z" fill="#282827"/>
<path d="M118.738 25.1066C117.825 24.6174 117.107 23.9259 116.585 23.0192C116.064 22.1125 115.803 21.0558 115.803 19.8425C115.803 18.6423 116.07 17.5921 116.599 16.6789C117.127 15.7657 117.851 15.0677 118.771 14.5785C119.69 14.0893 120.721 13.8479 121.863 13.8479C123.004 13.8479 124.035 14.0893 124.954 14.5785C125.874 15.0677 126.598 15.7657 127.127 16.6789C127.655 17.5921 127.922 18.6488 127.922 19.8425C127.922 21.0362 127.655 22.093 127.12 23.0062C126.585 23.9194 125.855 24.6174 124.928 25.1066C124.002 25.5958 122.965 25.8371 121.823 25.8371C120.682 25.8371 119.651 25.5958 118.738 25.1066ZM123.565 21.9951C124.048 21.4928 124.283 20.7753 124.283 19.8425C124.283 18.9097 124.048 18.1922 123.585 17.6899C123.122 17.1877 122.541 16.9398 121.863 16.9398C121.165 16.9398 120.591 17.1877 120.127 17.6834C119.664 18.1792 119.436 18.8967 119.436 19.849C119.436 20.7818 119.664 21.4994 120.114 22.0016C120.565 22.5039 121.132 22.7518 121.817 22.7518C122.502 22.7453 123.082 22.4974 123.565 21.9951Z" fill="#282827"/>
<path d="M135.946 22.6411V25.6678H134.126C132.828 25.6678 131.823 25.3481 131.099 24.7154C130.375 24.0827 130.01 23.0455 130.01 21.6105V16.9726H128.588V14.0047H130.01V11.1606H133.584V14.0047H135.926V16.9726H133.584V21.6561C133.584 22.0018 133.669 22.2562 133.832 22.4063C134.002 22.5628 134.276 22.6346 134.667 22.6346H135.946V22.6411Z" fill="#282827"/>
<path d="M139.957 25.3153C139.161 24.9696 138.535 24.4869 138.078 23.8868C137.622 23.2801 137.361 22.6017 137.309 21.8516H140.838C140.877 22.256 141.066 22.5822 141.399 22.8366C141.731 23.0844 142.142 23.2149 142.631 23.2149C143.075 23.2149 143.421 23.1301 143.662 22.954C143.903 22.7779 144.027 22.5561 144.027 22.2756C144.027 21.9429 143.851 21.6951 143.505 21.532C143.16 21.3689 142.592 21.1928 141.816 20.9971C140.981 20.8014 140.283 20.5992 139.729 20.3774C139.174 20.1621 138.691 19.823 138.287 19.3533C137.883 18.8836 137.68 18.2574 137.68 17.4616C137.68 16.7963 137.863 16.1831 138.235 15.6352C138.607 15.0873 139.148 14.6502 139.866 14.3306C140.583 14.011 141.438 13.8479 142.423 13.8479C143.884 13.8479 145.038 14.2132 145.88 14.9372C146.721 15.6613 147.204 16.6202 147.334 17.8204H144.034C143.982 17.416 143.799 17.0963 143.499 16.8615C143.199 16.6267 142.807 16.5093 142.318 16.5093C141.901 16.5093 141.581 16.5876 141.359 16.7506C141.138 16.9137 141.027 17.129 141.027 17.4095C141.027 17.7421 141.203 17.9965 141.562 18.1596C141.914 18.3292 142.468 18.4923 143.225 18.6619C144.086 18.8836 144.79 19.1054 145.338 19.3207C145.886 19.5359 146.356 19.8817 146.767 20.3644C147.178 20.8471 147.393 21.4863 147.406 22.2952C147.406 22.9801 147.217 23.5867 146.832 24.1216C146.447 24.6565 145.899 25.0805 145.182 25.3871C144.464 25.6936 143.629 25.8437 142.684 25.8437C141.659 25.8371 140.753 25.6676 139.957 25.3153Z" fill="#282827"/>
<path d="M19.856 6.05959L0 11.9629L2.22434 8.95579L22.0803 2.08057L19.856 6.05959Z" fill="#40A9D8"/>
<path d="M19.856 30.2859L0 36L2.22434 32.9929L22.0803 26.3069L19.856 30.2859Z" fill="#197CB0"/>
<path d="M9.6214 4.1548L0 5.94862L2.22434 2.94805L11.8392 0.175781L9.6214 4.1548Z" fill="#40A9D8"/>
<path d="M24.6699 10.2473L0 17.9705L2.22434 14.9635L26.8943 6.26831L24.6699 10.2473Z" fill="#EB9A39"/>
<path d="M27.0573 15.4658L0 23.9783L2.22434 20.9712L29.2817 11.4868L27.0573 15.4658Z" fill="#EB9A39"/>
<path d="M27.1943 22.0471L0 29.9856L2.22434 26.985L29.4187 18.0681L27.1943 22.0471Z" fill="#197CB0"/>
</svg>
