<svg width="316" height="399" viewBox="0 0 316 399" fill="none" xmlns="http://www.w3.org/2000/svg">
<path d="M106.506 65.5321L327.656 131.281L302.882 97.7892L81.7324 21.215L106.506 65.5321Z" fill="white" fill-opacity="0.13"/>
<path d="M106.506 335.358L327.656 399L302.882 365.508L81.7324 291.041L106.506 335.358Z" fill="white" fill-opacity="0.13"/>
<path d="M220.496 44.3172L327.656 64.2962L302.882 30.8767L195.795 0L220.496 44.3172Z" fill="white" fill-opacity="0.13"/>
<path d="M52.8898 112.174L327.656 198.193L302.882 164.701L28.1158 67.8568L52.8898 112.174Z" fill="white" fill-opacity="0.13"/>
<path d="M26.2996 170.296L327.656 265.106L302.882 231.614L1.52554 125.979L26.2996 170.296Z" fill="white" fill-opacity="0.13"/>
<path d="M24.7739 243.597L327.656 332.013L302.882 298.594L-9.15527e-05 199.28L24.7739 243.597Z" fill="white" fill-opacity="0.13"/>
</svg>
