<svg width="329" height="399" viewBox="0 0 329 399" fill="none" xmlns="http://www.w3.org/2000/svg">
<path d="M221.7 65.5321L0.549805 131.281L25.3238 97.7892L246.474 21.215L221.7 65.5321Z" fill="white" fill-opacity="0.13"/>
<path d="M221.7 335.358L0.549805 399L25.3238 365.508L246.474 291.041L221.7 335.358Z" fill="white" fill-opacity="0.13"/>
<path d="M107.71 44.3172L0.549805 64.2962L25.3238 30.8767L132.412 0L107.71 44.3172Z" fill="white" fill-opacity="0.13"/>
<path d="M275.316 112.174L0.549805 198.193L25.3238 164.701L300.09 67.8568L275.316 112.174Z" fill="white" fill-opacity="0.13"/>
<path d="M301.906 170.296L0.549805 265.106L25.3238 231.614L326.681 125.979L301.906 170.296Z" fill="white" fill-opacity="0.13"/>
<path d="M303.432 243.597L0.549805 332.013L25.3238 298.594L328.206 199.28L303.432 243.597Z" fill="white" fill-opacity="0.13"/>
</svg>
